<svg xmlns="http://www.w3.org/2000/svg" viewBox="0 0 1038.48 175.59">
  <defs/>
  <g>
        <path d="M208.36 16.12l-84.02 107.54-17.88-22.88-20.29 25.96 38.17 48.85L233.55 35.81l-25.19-19.69zM208.54 159.33l39.95.29-14.99-19.8.05-.03-30.47-39.01-20.29 25.96 25.43 32.55-.05.03h.08l.11.15.18-.14z" class="cls-1"/>
        <path d="M106.46 74.81l17.88-22.88 17.88 22.88 20.28-25.96L124.34 0 15.13 139.79 0 159.76l40.32-.29 38.2-48.9 27.94-35.76z" class="logo__mark"/>
      </g>
      <g>
        <path d="M359.29 56.35h-40.22V78.1h38v28.66h-38v22.45h40.22v28.65h-74.06V27.69h74.06zM387.09 157.86V27.69h33.84l62.49 79.59V27.69h33.67v130.17h-33.67l-62.49-79.59v79.59zM544.37 27.69h50.06a59.17 59.17 0 0 1 25 5.35 68.1 68.1 0 0 1 20.37 14.24A66.25 66.25 0 0 1 653.48 68a63.87 63.87 0 0 1 .09 49.38 65.9 65.9 0 0 1-13.64 20.8 67.12 67.12 0 0 1-20.38 14.33 59.39 59.39 0 0 1-25.12 5.35h-50.06zm33.84 101.52H586a41.93 41.93 0 0 0 15.72-2.77 33.62 33.62 0 0 0 11.65-7.59 32.59 32.59 0 0 0 7.25-11.48 41.08 41.08 0 0 0 2.5-14.59 40 40 0 0 0-2.59-14.51 32.49 32.49 0 0 0-19-19.16A41.54 41.54 0 0 0 586 56.35h-7.76zM791.77 157.86h-42.13l-32.28-50.06v50.06h-33.84V27.69h52.66a51.88 51.88 0 0 1 19 3.19 35.75 35.75 0 0 1 21.32 21.5 44.59 44.59 0 0 1 2.67 15.54q0 14.85-7.16 24.08t-21.15 12.52zm-74.41-72h6.38q10 0 15.37-4.14c3.57-2.76 5.35-6.74 5.35-11.91s-1.78-9.15-5.35-11.92-8.69-4.14-15.37-4.14h-6.38zM880.85 61a41.75 41.75 0 0 0-11.05-6.65 29.49 29.49 0 0 0-10.7-2.15q-6.57 0-10.7 3.1a9.67 9.67 0 0 0-4.15 8.12 8.05 8.05 0 0 0 2.07 5.69 18 18 0 0 0 5.44 3.89 47.51 47.51 0 0 0 7.6 2.85c2.82.8 5.61 1.67 8.37 2.59Q884.31 84 892 93.21t7.68 24.08a46.78 46.78 0 0 1-3.37 18.13 37.77 37.77 0 0 1-9.84 13.9 45.31 45.31 0 0 1-15.88 9 66.39 66.39 0 0 1-21.32 3.19q-24.69 0-45.75-14.67l14.48-27.3a58.51 58.51 0 0 0 15 10 36 36 0 0 0 14.67 3.28q8.29 0 12.35-3.8a11.74 11.74 0 0 0 3-13.72 11 11 0 0 0-3.45-4 27.94 27.94 0 0 0-6.3-3.37c-2.59-1-5.73-2.18-9.41-3.45q-6.57-2.07-12.87-4.58a40.32 40.32 0 0 1-11.22-6.65 30.8 30.8 0 0 1-7.94-10.44q-3-6.3-3-16a46.13 46.13 0 0 1 3.19-17.52 38.88 38.88 0 0 1 9-13.47 40 40 0 0 1 14.16-8.72 53.52 53.52 0 0 1 18.73-3.11 82.23 82.23 0 0 1 20.2 2.68 89.16 89.16 0 0 1 20.2 7.86zM924.36 27.69h50.07A59.16 59.16 0 0 1 999.37 33a68.27 68.27 0 0 1 20.38 14.24A66.23 66.23 0 0 1 1033.47 68a63.87 63.87 0 0 1 .09 49.38 65.9 65.9 0 0 1-13.64 20.8 67 67 0 0 1-20.37 14.33 59.46 59.46 0 0 1-25.12 5.35h-50.07zm33.84 101.52h7.8a41.87 41.87 0 0 0 15.71-2.77 33.62 33.62 0 0 0 11.65-7.59 32.59 32.59 0 0 0 7.25-11.48 41.08 41.08 0 0 0 2.5-14.59 40.23 40.23 0 0 0-2.58-14.51 32.55 32.55 0 0 0-19-19.16A41.52 41.52 0 0 0 966 56.35h-7.8z" class="logo__type"/>
      </g>
</svg>
