<svg version="1" xmlns="http://www.w3.org/2000/svg" width="994.667" height="994.667" viewBox="0 0 746.000000 746.000000"><path d="M210.5 317.6C59.2 511.3-.1 588 .6 588.8c.1.2 27.4.1 60.7-.3l60.4-.8L247 427.3c68.9-88.2 125.6-160.6 126-160.8.4-.2 12.6 14.8 27.1 33.5 14.5 18.7 26.6 33.9 26.9 33.9 1 0 60.5-77.2 60.2-78.2-.5-1.5-113.3-145.7-114-145.6-.4 0-73.6 93.4-162.7 207.5z"/><path d="M499.4 319L373.5 480.1l-2.1-2.4c-1.1-1.3-13.2-16.7-26.9-34.1-13.6-17.5-25.1-31.4-25.5-30.9-3.6 3.8-59.3 76-59.4 77-.1 1.3 112.4 146.1 113.6 146.2.6.1 327.1-417.4 327.5-418.7.1-.6-66.4-53-73.6-58-1.7-1.2-12 11.6-127.7 159.8zM579.7 449.9c-16.4 20.9-29.9 38.6-30.2 39.3-.3.7 16.6 23.2 37.6 50l38.1 48.8h59.9c47.8 0 59.9-.3 59.3-1.3-3.7-6.2-127.9-167.3-133.8-173.5-1-1-7.2 6.3-30.9 36.7z"/></svg>